<svg width="82" height="82" viewBox="0 0 82 82" fill="none" xmlns="http://www.w3.org/2000/svg">
<g id="circuit_1_ 1" opacity="0.2" clip-path="url(#clip0_53_107)">
<g id="Group">
<path id="Vector" d="M36.3715 0.27227C36.1633 0.448441 35.5547 1.79375 34.834 3.66758C34.1773 5.36523 33.6168 6.77461 33.6008 6.79063C33.5687 6.82265 32.8 7.03086 31.8711 7.2711C28.9723 8.02383 26.2816 9.19297 22.6461 11.227L21.9895 11.5953L18.8344 10.1859C15.9676 8.92071 15.6312 8.79258 15.2309 8.96875C14.6703 9.19297 9.04883 14.8465 8.90469 15.327C8.82461 15.5992 9.17695 16.5441 10.1859 18.8344L11.5953 21.9895L11.227 22.6461C9.19297 26.2816 8.02383 28.9723 7.27109 31.8711C7.03086 32.8 6.82266 33.5688 6.79062 33.6008C6.77461 33.6168 5.36523 34.1773 3.66758 34.834C1.79375 35.5547 0.448437 36.1633 0.288281 36.3715C0.0320312 36.6758 0 37.1562 0 41C0 44.8438 0.0320312 45.3242 0.288281 45.6285C0.448437 45.8367 1.79375 46.4453 3.66758 47.166C5.36523 47.8227 6.77461 48.3832 6.79062 48.3992C6.82266 48.4313 7.03086 49.2 7.27109 50.1289C8.02383 53.0277 9.19297 55.7184 11.227 59.3539L11.5953 60.0105L10.1859 63.1656C9.17695 65.4559 8.82461 66.4008 8.90469 66.673C9.04883 67.1535 14.6703 72.807 15.2309 73.0312C15.6312 73.2074 15.9676 73.0953 18.7703 71.8461C20.468 71.0934 21.9254 70.4688 21.9895 70.4688C22.0535 70.4688 22.9504 70.9332 23.9754 71.4938C26.3297 72.807 29.2445 74.0082 31.6629 74.6648C32.7039 74.9531 33.5687 75.1934 33.6008 75.2094C33.6168 75.2254 34.1773 76.6348 34.834 78.3324C35.5547 80.2063 36.1633 81.5516 36.3715 81.7117C36.6758 81.968 37.1562 82 41 82C44.8438 82 45.3242 81.968 45.6285 81.7117C45.9488 81.4555 48.6875 74.6488 48.6875 74.1043C48.6875 73.9762 48.5594 73.7039 48.3992 73.4957C48.0469 73.0793 47.198 72.9992 46.8297 73.3676C46.7016 73.4957 46.077 74.9691 45.4363 76.6508L44.2672 79.6777H41H37.7328L36.5797 76.6668C35.9391 75.0012 35.3305 73.5437 35.2344 73.4316C35.1383 73.3035 34.4977 73.0793 33.825 72.9352C30.6379 72.2465 26.634 70.6129 23.9113 68.8992C23.1746 68.4348 22.4059 68.0664 22.1816 68.0664C21.9734 68.0664 20.484 68.643 18.8984 69.3477C17.3129 70.0523 15.9516 70.6289 15.8875 70.6289C15.7434 70.6289 11.3711 66.2566 11.3711 66.1125C11.3711 66.0484 11.9477 64.6871 12.6523 63.1016C13.357 61.516 13.9336 60.0426 13.9336 59.8344C13.9336 59.6102 13.5652 58.8414 13.1008 58.1047C11.3711 55.318 9.75352 51.3461 9.06484 48.175C8.9207 47.5023 8.69648 46.8617 8.56836 46.7656C8.45625 46.6695 6.99883 46.0609 5.3332 45.4203L2.32227 44.2672V41V37.7328L5.3332 36.5797C6.99883 35.9391 8.45625 35.3305 8.56836 35.2344C8.69648 35.1383 8.9207 34.4977 9.06484 33.825C9.75352 30.6539 11.3711 26.682 13.1008 23.8953C13.5652 23.1586 13.9336 22.3898 13.9336 22.1656C13.9336 21.9574 13.357 20.484 12.6523 18.8984C11.9477 17.3129 11.3711 15.9516 11.3711 15.8875C11.3711 15.7434 15.7434 11.3711 15.8875 11.3711C15.9516 11.3711 17.3129 11.9477 18.8984 12.6523C20.484 13.357 21.9574 13.9336 22.1656 13.9336C22.3898 13.9336 23.1586 13.5652 23.8953 13.1008C26.682 11.3711 30.6539 9.75352 33.825 9.06484C34.4977 8.92071 35.1383 8.69649 35.2344 8.56836C35.3305 8.45625 35.9391 6.99883 36.5797 5.33321L37.7328 2.32227H41H44.2672L45.4363 5.34922C46.077 7.03086 46.7016 8.5043 46.8297 8.63242C47.198 9.00079 48.0469 8.92071 48.3992 8.5043C48.5594 8.2961 48.6875 8.00781 48.6875 7.86367C48.6875 7.31915 45.9648 0.560547 45.6285 0.27227C45.3242 0.0320358 44.8438 0 41 0C37.1562 0 36.6758 0.0320358 36.3715 0.27227Z" fill="white"/>
<path id="Vector_2" d="M57.4161 4.75664C54.5172 5.79765 53.1559 9.14491 54.5172 11.9316C55.0457 12.9887 56.1508 13.9977 57.2079 14.366L57.9766 14.6543V16.416V18.1777L54.325 21.8293L50.6895 25.4648H46.3973H42.1211V21.3168C42.1211 17.3129 42.1051 17.1687 41.7688 16.7363L41.4165 16.2879L39.6227 16.384C35.1543 16.6242 30.8622 18.0977 26.9864 20.7082C25.0965 21.9894 21.9895 25.0965 20.7083 26.9863C18.7864 29.8371 17.5211 32.816 16.8004 36.1953C16.2719 38.6297 16.2719 43.3703 16.8004 45.8047C17.5051 49.1359 18.8184 52.2109 20.7083 55.0137C21.9895 56.9035 25.0965 60.0105 26.9864 61.2918C30.8461 63.8863 35.1704 65.3758 39.6227 65.616L41.4165 65.7121L41.7688 65.2637C42.1051 64.8312 42.1211 64.6871 42.1211 60.6832V56.5352H46.4133H50.6895L54.3411 60.1867L57.9766 63.8223V65.584V67.3457L57.2079 67.634C56.1348 68.0023 55.0457 69.0113 54.5012 70.1164C54.1168 70.9012 54.0528 71.2215 54.0528 72.3906C54.0688 73.9922 54.4372 74.9531 55.4942 76.0102C56.5512 77.0672 57.4961 77.4355 59.0977 77.4355C60.2668 77.4355 60.5872 77.3715 61.3719 76.9871C62.3649 76.5066 63.2137 75.6578 63.7743 74.6008C64.0786 74.0242 64.1426 73.6719 64.1426 72.3906C64.1426 70.9973 64.0946 70.7891 63.6622 70.0043C63.0696 68.9312 61.9965 67.9863 60.9875 67.634L60.2188 67.3457V65.1195V62.8773L56.0067 58.6652L51.8106 54.4531H46.9579H42.1211V51.8906V49.3281H47.5024H52.8997L55.1739 51.5703L57.4481 53.8125H59.2098H60.9715L61.1797 54.4371C61.5161 55.4941 62.445 56.5352 63.5821 57.1598C64.559 57.6883 64.7192 57.7363 65.9844 57.7203C67.65 57.7203 68.5629 57.3359 69.7 56.1828C70.7411 55.1098 71.1575 53.9566 71.0774 52.3711C70.9653 50.4652 70.0043 48.9758 68.3067 48.0789C67.602 47.6945 67.3297 47.6465 65.9844 47.6465C64.5911 47.6465 64.3829 47.6945 63.5981 48.127C62.525 48.7195 61.5801 49.7926 61.2278 50.8016L60.9395 51.5703H59.5782H58.2168L56.0227 49.3602L53.8125 47.166L47.9668 47.118L42.1211 47.0699V44.6035V42.1211H57.0157C71.0934 42.1211 71.9102 42.1371 71.9102 42.3934C71.9102 42.5535 72.1184 43.05 72.3907 43.4984C74.4086 47.0379 79.3735 46.9898 81.3434 43.4023C81.8719 42.4254 81.92 42.2652 81.904 41C81.904 39.8949 81.8239 39.4945 81.5196 38.8379C80.0301 35.7789 76.0743 34.9141 73.5278 37.0922C72.8231 37.7008 71.9102 39.1102 71.9102 39.5906C71.9102 39.8629 71.0934 39.8789 57.0157 39.8789H42.1211V37.3965V34.9141H47.7586H53.3801L56.0547 32.2715L58.7293 29.6289H59.7864H60.8434L61.2758 30.5898C61.7723 31.7109 62.9094 32.848 64.0305 33.3605C65.1516 33.873 66.8973 33.841 68.0985 33.2805C69.1555 32.784 70.1485 31.823 70.661 30.782C70.9653 30.1574 71.0293 29.773 71.0293 28.5879C71.0293 27.3387 70.9653 27.0344 70.5969 26.3297C68.5629 22.4539 63.1016 22.582 61.3079 26.5379L60.8594 27.5469H59.2899H57.7364L55.1739 30.1094L52.6114 32.6719H47.3743H42.1211V30.1094V27.5469H46.9579H51.7946L56.0067 23.3348L60.2188 19.1227V16.8805V14.6543L60.9875 14.366C61.42 14.2219 62.0926 13.8215 62.477 13.4691C64.6231 11.5953 64.8153 8.32812 62.9254 6.19804C61.6282 4.7246 59.2579 4.09999 57.4161 4.75664ZM60.1707 6.90273C60.7153 7.11093 61.452 7.78358 61.7563 8.36015C62.1086 9.03281 62.0446 10.3461 61.6282 11.0828C60.9395 12.3 59.0497 12.8926 57.8485 12.268C55.1258 10.8426 56.0067 6.75859 59.0497 6.72655C59.418 6.72655 59.9145 6.80663 60.1707 6.90273ZM39.879 41V63.4219H39.5266C38.7098 63.4219 36.0192 62.9254 34.6739 62.541C33.8891 62.3168 32.4157 61.7402 31.4387 61.2598C24.9524 58.1527 20.468 52.4352 18.9465 45.3242C18.5461 43.4023 18.5461 38.5977 18.9465 36.6758C20.7243 28.3477 26.7461 21.7812 34.7059 19.459C36.1153 19.0426 38.3735 18.6262 39.3665 18.5941L39.879 18.5781V41ZM67.65 26.2336C68.579 26.8742 68.8993 27.5789 68.8352 28.7641C68.7872 29.5488 68.675 29.8691 68.3227 30.3496C67.5059 31.4227 66.1125 31.807 64.9114 31.3105C63.7583 30.8301 63.1016 29.8211 63.1016 28.5879C63.1016 26.2176 65.7122 24.8562 67.65 26.2336ZM78.1403 38.4055C78.4446 38.5496 78.909 38.95 79.1813 39.2863C79.6297 39.8469 79.6778 40.023 79.6778 41C79.6778 41.977 79.6297 42.1531 79.1813 42.7137C78.5567 43.4984 77.7879 43.8828 76.811 43.8828C73.9282 43.8828 72.8711 39.991 75.3536 38.5016C76.1383 38.0371 77.3395 37.9891 78.1403 38.4055ZM67.4579 50.1449C68.6911 50.7695 69.2516 52.6594 68.579 53.9566C67.2657 56.5512 63.3739 55.8145 63.1336 52.9316C62.9415 50.5133 65.2317 49.0398 67.4579 50.1449ZM60.6032 69.8922C61.484 70.4047 61.9805 71.3176 61.9805 72.3746C61.9805 73.3035 61.7403 73.8641 61.0676 74.5047C59.2418 76.2344 56.2149 74.9211 56.2149 72.3906C56.2149 71.5898 56.4551 70.9812 56.9836 70.4047C57.8965 69.4277 59.45 69.2195 60.6032 69.8922Z" fill="white"/>
<path id="Vector_3" d="M31.5508 27.3066C29.3726 28.7641 27.3226 31.1344 26.1215 33.5688C24.8883 36.0992 24.4398 38.0531 24.4398 41C24.4398 43.9469 24.8883 45.9008 26.1215 48.4313C27.3386 50.8816 29.4047 53.252 31.5668 54.7094C32.784 55.5102 33.1683 55.5742 33.7129 55.0137C34.4496 54.293 34.2734 53.9246 32.6078 52.7074C29.757 50.6414 27.8992 47.9027 26.9703 44.4274C26.5539 42.8738 26.5539 39.1262 26.9703 37.5727C27.8992 34.0973 29.757 31.3586 32.6078 29.2926C34.2734 28.0754 34.4496 27.707 33.7129 26.9863C33.1683 26.4258 32.7519 26.4898 31.5508 27.3066Z" fill="white"/>
</g>
</g>
<defs>
<clipPath id="clip0_53_107">
<rect width="82" height="82" fill="white"/>
</clipPath>
</defs>
</svg>
