<svg width="82" height="82" viewBox="0 0 82 82" fill="none" xmlns="http://www.w3.org/2000/svg">
<g id="dependable(1) 1" opacity="0.2">
<g id="Group">
<path id="Vector" d="M31.823 4.99688C24.0715 8.32812 23.1906 8.74453 22.9664 9.17696C22.7422 9.59336 22.7262 10.6504 22.7902 17.8414C22.8543 25.4648 22.8863 26.1375 23.2066 27.5789C23.8793 30.6699 24.9523 33.1363 26.5539 35.3625C27.0023 36.0031 27.3867 36.5797 27.3867 36.6277C27.3867 36.868 25.7371 36.4035 24.3758 35.7629C23.5109 35.3785 22.6621 34.9781 22.4699 34.898L22.1176 34.7699L22.598 33.6168C23.527 31.4387 23.0305 29.4688 21.3008 28.5238C20.9164 28.2996 19.5391 27.675 18.2578 27.1145C16.3359 26.2816 15.7914 26.1055 15.0547 26.1055C14.0297 26.1055 13.0848 26.5059 12.4441 27.1945C12.1398 27.5148 10.1539 31.823 6.63047 39.7828C1.5375 51.3301 1.28125 51.9387 1.28125 52.8516C1.28125 54.9496 1.90586 55.5742 5.54141 57.1598C7.03086 57.8164 8.53633 58.377 8.88867 58.409C10.4262 58.5852 11.8836 57.7363 12.5883 56.2469L13.0527 55.2859L14.334 55.8465C15.0387 56.1668 15.7113 56.4871 15.8234 56.5832C16.0316 56.7434 16.2719 57.5441 16.7203 59.5301L16.9926 60.6832L16.1437 62.3008C15.343 63.8543 15.2949 63.9664 15.2949 65.1516C15.3109 66.657 15.7914 67.8582 16.8164 68.8512C17.5051 69.5238 18.8984 70.1484 19.6832 70.1484C20.1156 70.1484 20.1316 70.1805 20.2117 71.1574C20.3719 73.0633 21.2848 74.4406 22.9344 75.2734C23.7832 75.6898 24.0875 75.7539 25.1285 75.7379C25.8012 75.7379 26.602 75.6418 26.9062 75.5297C27.4508 75.3215 27.4668 75.3375 27.8992 75.9941C28.3957 76.7469 29.3086 77.4355 30.2215 77.7719C30.9422 78.0121 32.8 78.0602 33.3766 77.8359C33.7609 77.6918 33.825 77.7398 34.1133 78.3004C34.5297 79.1332 35.7309 80.1582 36.6277 80.4625C37.0441 80.6066 37.893 80.7188 38.5176 80.7188C39.4785 80.7188 39.8309 80.6387 40.6156 80.2383C41.1441 79.982 41.7687 79.5656 42.009 79.3094L42.4574 78.8449L43.5305 79.4215C44.5234 79.95 44.6996 79.998 45.9648 79.998C47.118 79.998 47.4383 79.934 48.143 79.5656C49.5844 78.8129 50.5773 77.4516 50.7215 76.0102L50.8016 75.1934L51.9547 75.1773C53.348 75.1453 54.0687 74.857 55.0938 73.8961C55.9266 73.1273 56.4391 72.1184 56.5992 70.9012L56.7113 70.1484H57.5602C58.5852 70.1484 60.1387 69.4277 60.7793 68.675C61.6762 67.618 61.9004 66.9773 61.9004 65.3918V63.9184L62.557 63.6621C64.1105 63.0695 65.3438 61.2277 65.3438 59.482V58.5051L66.9934 57.8164C67.8902 57.448 68.707 57.1117 68.8031 57.0637C68.8992 57.0316 69.0594 57.3039 69.1715 57.6562C69.4117 58.4891 70.3566 59.5461 71.1895 59.9145C72.3266 60.443 73.0953 60.3148 76.1383 59.1617C77.868 58.5051 79.1492 57.9285 79.5176 57.6082C80.3184 56.9676 80.7188 56.0547 80.7188 54.8855C80.7188 54.0527 80.3184 52.9477 76.859 43.9949C70.6129 27.8512 71.1895 29.2445 70.3727 28.5238C69.5078 27.7711 68.3387 27.4508 67.3297 27.675C65.9844 27.9953 61.6281 29.8371 61.0676 30.3176C59.9145 31.3426 59.6102 32.8641 60.2348 34.5617C60.7793 36.0191 60.7953 35.9711 59.1297 36.852C57.432 37.7488 56.9676 37.8129 55.334 37.3004L54.277 36.9801L54.7254 36.3875C56.8234 33.6328 58.0246 31.0223 58.8094 27.5148C59.1137 26.1375 59.1457 25.3688 59.2098 17.8414C59.2738 10.6504 59.2578 9.59336 59.0336 9.17696C58.8094 8.72852 57.9445 8.32812 50.1449 4.98086C44.5074 2.5625 41.3203 1.28125 40.968 1.28125C40.6477 1.29726 37.1883 2.69063 31.823 4.99688ZM48.8477 7.43125L56.4551 10.6824V17.9535C56.4551 25.8172 56.407 26.4258 55.5582 29.0203C54.8375 31.2625 53.5723 33.4887 52.0828 35.2023L51.4902 35.875L50.5773 35.6188L49.6645 35.3625L50.7215 34.1293C52.4352 32.1273 53.5562 29.9652 54.2129 27.4668C54.6773 25.6891 54.7895 23.5109 54.7414 17.8414C54.6934 12.6363 54.6773 12.1879 54.4051 11.8836C54.0527 11.4992 41.5285 6.08594 41 6.08594C40.4715 6.08594 27.9473 11.4992 27.5949 11.8836C27.3227 12.1879 27.3066 12.6363 27.2586 17.8414C27.2266 20.9645 27.2906 24.1355 27.3707 24.9844C27.7871 28.7801 29.1484 31.823 31.6789 34.5938L32.6238 35.6348L31.6469 35.827L30.6699 36.0191L29.9973 35.2664C28.4758 33.5848 27.1945 31.3266 26.4418 29.0203C25.593 26.4258 25.5449 25.8172 25.5449 17.9535V10.6824L33.0723 7.44727C37.2203 5.65352 40.7437 4.1961 40.9199 4.18008C41.0961 4.16406 44.6676 5.6375 48.8477 7.43125ZM46.5734 11.3231L52.0828 13.6773L52.0027 19.5391C51.9227 25.8172 51.8746 26.2816 50.9937 28.5078C50.4012 30.0133 49.5684 31.2945 48.3832 32.5598C46.8457 34.1934 45.5965 35.0102 44.1391 35.3945C43.4504 35.5707 42.4254 35.9391 41.8328 36.2113C40.8398 36.6918 40.7277 36.7078 40.0391 36.5316C39.1102 36.2914 36.884 35.2344 35.9551 34.5938C33.2645 32.752 31.2945 29.9172 30.4137 26.666C30.0773 25.4809 30.0453 24.9203 29.9812 19.5391L29.9172 13.6773L35.3465 11.3391C38.3254 10.0578 40.8398 9.00079 40.9199 8.98476C41.016 8.96875 43.5625 10.0258 46.5734 11.3231ZM17.5531 29.8051C19.9555 30.8621 20.3398 31.1184 20.3398 31.5828C20.3398 31.9832 10.1539 55.0777 9.81758 55.4461C9.67344 55.6063 9.46523 55.7344 9.36914 55.7344C9.12891 55.7344 4.85273 53.8766 4.37227 53.5563C4.14805 53.4281 4.00391 53.1559 4.00391 52.9316C4.00391 52.5793 14.1098 29.4848 14.4621 29.0203C14.7344 28.668 15.2949 28.8121 17.5531 29.8051ZM68.7711 30.8941C68.8992 31.1184 71.0133 36.5477 73.5117 42.9539C76.4426 50.5453 77.9961 54.7574 77.9641 55.0457C77.916 55.4621 77.7398 55.5582 75.4336 56.4871C74.0723 57.0316 72.791 57.4801 72.5988 57.4801C72.3906 57.4961 72.1344 57.3359 72.0062 57.1277C71.8781 56.9355 69.7 51.4422 67.1855 44.9238C63.4219 35.2184 62.6211 33.0082 62.7332 32.6719C62.8453 32.3355 63.2777 32.1113 65.4238 31.2945C66.8172 30.75 68.0984 30.3496 68.2586 30.3977C68.4187 30.4297 68.659 30.6539 68.7711 30.8941ZM23.0305 38.1973C26.0094 39.5746 26.9383 39.6387 30.9902 38.7578C33.7289 38.1652 34.9301 38.0531 36.1633 38.2773C38.1172 38.6297 38.1172 38.5977 36.5316 40.1352C33.9691 42.5855 31.3746 44.6035 28.4918 46.3492C27.2266 47.118 26.9062 47.5344 26.9062 48.4152C26.9062 49.0398 27.1625 49.4402 28.2516 50.5934C30.0773 52.4992 32.0152 53.348 34.6258 53.348C36.6437 53.348 38.1812 52.9637 41.8008 51.5703C45.3082 50.209 46.3812 49.9207 47.7266 50.0008C48.7516 50.0648 48.8797 50.1129 55.1738 53.7004C59.0977 55.9266 61.7883 57.5602 62.1086 57.8965C62.525 58.3449 62.6211 58.5852 62.6211 59.1297C62.6211 60.3789 61.6922 61.3398 60.507 61.3398C60.1227 61.3398 58.8094 60.6672 55.5742 58.8254C51.8426 56.7113 51.0578 56.327 50.4812 56.3109C49.9207 56.2949 49.7125 56.375 49.4723 56.6793C49.1199 57.1117 49.0719 57.9445 49.3762 58.3609C49.4883 58.5211 51.6023 59.7863 54.0687 61.1797C59.1297 64.0305 59.3379 64.2066 59.2098 65.568C59.1457 66.2246 59.0336 66.4488 58.5531 66.8973C58.0887 67.3297 57.8484 67.4258 57.2398 67.4258C56.5832 67.4258 55.9266 67.0895 50.8016 64.2066C47.6625 62.4449 44.9078 60.9715 44.6836 60.9234C43.7227 60.7473 42.9219 61.7242 43.2422 62.6852C43.4023 63.1656 43.7707 63.4219 46.8937 65.1836C53.4922 68.9152 53.332 68.8031 53.6844 69.6199C53.9887 70.3086 53.9887 70.3727 53.7324 71.0453C53.2359 72.3426 52.0508 72.8551 50.8656 72.2785C49.1199 71.4297 44.4273 68.643 43.7707 68.0824C42.8098 67.2336 41.8008 66.9133 40.2953 66.9773L39.1102 67.0254L38.934 66.5289C38.6617 65.7602 37.5246 64.575 36.6117 64.0945C35.923 63.7422 35.5707 63.6621 34.3695 63.6461L32.9281 63.6141L32.6238 63.0055C31.823 61.3879 30.1734 60.3469 28.3957 60.3148L27.3867 60.2988L27.1465 59.466C26.682 57.8645 24.9684 56.4391 23.1266 56.1348C22.1656 55.9906 20.7082 56.2949 19.8273 56.8555L19.0586 57.3199L18.8824 56.6473C18.6422 55.7344 18.0176 54.6613 17.5051 54.325C17.2648 54.1809 16.416 53.7645 15.6152 53.4121L14.1418 52.7715L17.0406 46.2051C18.6422 42.5855 20.1637 39.1102 20.452 38.4695C20.7242 37.8449 20.9965 37.3164 21.0285 37.3164C21.0766 37.3164 21.9734 37.7168 23.0305 38.1973ZM50.6895 38.5816C51.7465 38.95 53.2199 39.4785 53.9727 39.7508C55.1258 40.1832 55.5742 40.2633 56.8555 40.2633C58.377 40.2793 58.393 40.2793 60.0906 39.4465L61.8043 38.6297L61.9484 39.0461C62.0445 39.2863 63.3898 42.7617 64.9434 46.7656C66.5129 50.7695 67.7941 54.1488 67.8102 54.2609C67.8262 54.4371 64.7352 55.8945 64.3348 55.8945C64.2707 55.8945 63.9344 55.6863 63.6141 55.4301C62.541 54.5973 50.225 47.7266 49.3441 47.4543C48.7035 47.2781 48.0469 47.2301 46.9418 47.2781C45.3242 47.3582 43.8508 47.7906 39.5266 49.4723C35.3305 51.0898 33.3445 51.0738 31.0543 49.3922L30.0773 48.6715L31.9512 47.3902C34.3215 45.8047 35.6027 44.7797 38.1172 42.4414C40.5996 40.1512 41.1281 39.7348 42.6176 38.934C44.3152 38.0211 45.2602 37.7969 47.166 37.8449C48.5754 37.893 49.0078 37.973 50.6895 38.5816ZM23.3348 59.0977C24.2637 59.5141 24.6961 60.2348 24.616 61.1797C24.568 61.7242 24.1996 62.493 23.1586 64.3027C22.3898 65.616 21.5891 66.8652 21.3648 67.0574C20.5801 67.7621 18.9945 67.4098 18.3219 66.3848C17.7453 65.5039 17.9055 64.8313 19.3949 62.0605C20.6441 59.7383 20.8203 59.482 21.4609 59.1457C22.2937 58.6973 22.4699 58.6973 23.3348 59.0977ZM28.9883 63.1977C29.725 63.502 30.2535 64.1426 30.3816 64.9273C30.4617 65.4078 30.2215 65.9523 28.668 68.9313C26.666 72.775 26.4418 73.0312 25.0965 73.0312C24.5039 73.0312 24.2477 72.9352 23.7992 72.5508C23.1586 71.9902 22.8223 71.1414 22.9824 70.5008C23.0305 70.2605 23.9273 68.5789 24.9523 66.7531C26.618 63.8062 26.8902 63.4059 27.3867 63.1977C28.1074 62.8934 28.2195 62.8934 28.9883 63.1977ZM35.3945 66.609C36.0672 66.9613 36.5156 67.666 36.5477 68.4027C36.5637 69.2195 33.7609 74.5527 33.0883 74.9691C32.1273 75.5457 30.6539 75.2254 30.0453 74.2805C29.5328 73.4957 29.6449 73.0793 31.2785 69.8762C32.6078 67.3137 32.9441 66.7691 33.3605 66.5609C34.0492 66.2246 34.7219 66.2406 35.3945 66.609ZM41.7367 69.9723C42.3773 70.3727 42.8258 71.3016 42.7137 72.0703C42.6016 72.8871 40.4715 76.843 39.7988 77.4676C39.3344 77.916 39.1262 77.9961 38.4855 77.9961C38.0211 77.9961 37.5246 77.884 37.2203 77.6918C36.7078 77.3875 36.1953 76.5066 36.1953 75.9461C36.1953 75.5938 38.6457 70.741 39.0621 70.2445C39.6066 69.6199 40.9199 69.4758 41.7367 69.9723ZM46.6215 73.1273C47.6785 73.768 48.0469 74.3125 48.0469 75.2254C48.0469 76.3305 47.0379 77.3555 45.9488 77.3555C45.5484 77.3555 43.8828 76.5547 43.8828 76.3625C43.8828 76.2824 44.2031 75.5938 44.5875 74.825C44.9719 74.0563 45.3242 73.2395 45.3883 72.9832C45.4523 72.743 45.5324 72.5508 45.5805 72.5508C45.6445 72.5508 46.109 72.807 46.6215 73.1273Z" fill="white"/>
<path id="Vector_2" d="M46.4453 15.2469C45.7886 15.391 45.4043 15.7273 42.4414 18.6742L39.1422 21.9414L37.957 20.7242C36.3715 19.1227 35.8269 18.8504 34.4176 18.9305C33.5207 18.9785 33.2004 19.0746 32.6558 19.459C31.4066 20.3398 30.9261 22.0375 31.4707 23.5109C31.6949 24.0875 32.3195 24.8242 34.2574 26.7941C35.6347 28.2035 37.0761 29.5328 37.4765 29.757C38.4054 30.3176 39.7988 30.3496 40.7597 29.8371C41.1281 29.6449 43.2742 27.5949 45.7726 25.0645C50.6574 20.1316 50.8496 19.8594 50.7375 18.2418C50.5773 16.1117 48.6394 14.7664 46.4453 15.2469ZM48.0308 18.498C48.0629 18.6902 46.7176 20.1477 43.7066 23.1586C41.2883 25.577 39.2543 27.5469 39.1742 27.5469C38.9019 27.5469 33.9531 22.534 33.9531 22.2617C33.9531 21.9094 34.2734 21.6211 34.6578 21.6211C34.85 21.6211 35.7148 22.3578 36.8359 23.4629C38.7578 25.3527 39.0301 25.5129 39.7668 25.1285C39.959 25.0164 41.7047 23.3188 43.6586 21.3168C47.182 17.7293 47.198 17.7133 47.5824 17.9695C47.7906 18.0977 47.9988 18.3379 48.0308 18.498Z" fill="white"/>
<path id="Vector_3" d="M15.327 31.5508C14.4942 32.2074 14.6223 33.7289 15.5512 34.1934C16.8164 34.866 18.1297 33.857 17.8735 32.4477C17.7293 31.727 17.1207 31.2305 16.336 31.2305C15.9836 31.2305 15.5672 31.3586 15.327 31.5508Z" fill="white"/>
<path id="Vector_4" d="M65.7762 32.9281C64.4309 33.6488 65.0074 35.875 66.5449 35.875C67.2977 35.875 67.682 35.6668 67.9863 35.0742C68.3707 34.3375 68.2906 33.825 67.682 33.2164C67.0735 32.6078 66.5129 32.5277 65.7762 32.9281Z" fill="white"/>
</g>
</g>
</svg>
