<svg width="82" height="82" viewBox="0 0 82 82" fill="none" xmlns="http://www.w3.org/2000/svg">
<g id="maintenance 1" opacity="0.2">
<g id="Group">
<path id="Vector" d="M54.3571 4.32421C52.8356 4.48437 52.6754 4.54843 52.0348 5.22109C51.5063 5.76562 51.4903 5.81367 51.4422 7.33515L51.3782 8.88867L50.1129 9.35312C49.4082 9.59336 48.4313 9.99375 47.9348 10.25L47.0379 10.7145L45.9969 9.75351C44.7317 8.60039 43.995 8.34414 43.018 8.7125C41.7047 9.22499 37.7969 13.0527 37.3164 14.334C36.9161 15.407 37.1883 16.1598 38.4215 17.3769C38.87 17.8094 39.2383 18.2578 39.2383 18.3539C39.2383 18.466 38.9981 19.0586 38.6938 19.6672C38.4055 20.2918 38.0211 21.2207 37.861 21.7492L37.5567 22.7102L36.0832 22.7742C34.5137 22.8383 34.0813 23.0145 33.4407 23.8793C32.9762 24.4879 32.784 26.2496 32.8641 28.9883C32.9602 31.6789 33.1043 32.3035 33.8731 32.9922C34.2575 33.3445 34.4817 33.4086 35.9071 33.4727L37.5246 33.5527L37.877 34.6098C38.0692 35.1863 38.4696 36.1633 38.7578 36.8039L39.2864 37.957L38.3094 38.998C36.4516 40.968 36.7078 41.9449 39.911 45.116C41.9289 47.118 42.7938 47.7266 43.6746 47.7266C44.5875 47.7266 44.8758 47.5664 45.9969 46.4773L46.9098 45.5965L48.3192 46.2371C49.0879 46.5895 50.1129 47.0059 50.5774 47.166L51.4102 47.4383V48.8316C51.4102 50.4332 51.6825 51.0578 52.6914 51.6344C53.2039 51.9387 53.5082 51.9707 56.7754 51.9707C60.0106 51.9707 60.3469 51.9387 60.8434 51.6504C61.8364 51.0578 62.0606 50.5934 62.1086 48.9277L62.1727 47.4383L63.1496 47.0859C63.6942 46.8937 64.7032 46.4773 65.3918 46.157L66.6411 45.5805L67.6661 46.6055C68.5789 47.5184 68.7551 47.6145 69.4758 47.6945C70.661 47.8066 71.2536 47.4223 73.6078 45.084C75.7379 42.9539 76.3946 42.009 76.3946 41.0641C76.3946 40.4875 75.7059 39.3824 74.825 38.5336L74.1844 37.909L74.6649 36.9641C74.9211 36.4516 75.3375 35.4586 75.5938 34.7859L76.0422 33.5527L77.5477 33.4727C79.3254 33.3766 79.8059 33.1363 80.2543 32.0953C80.911 30.6219 80.8149 24.8082 80.1102 23.8793C79.4696 23.0145 79.0211 22.8223 77.4516 22.7742L75.9621 22.7102L75.6739 21.8133C75.5137 21.3008 75.1293 20.3078 74.793 19.6031L74.1844 18.2898L75.0653 17.441C76.4106 16.1277 76.6828 15.2629 76.0903 14.1258C75.3215 12.6684 71.75 9.19297 70.5329 8.7125C69.5399 8.32812 68.7871 8.60039 67.5219 9.78554L66.4969 10.7305L65.1676 10.0898C64.4309 9.7375 63.4379 9.32109 62.9895 9.19297L62.1407 8.95273V7.67148C62.1407 5.7496 61.6282 4.86874 60.2989 4.50039C59.434 4.27617 55.7664 4.14804 54.3571 4.32421ZM58.345 6.82265L59.5782 6.93476V8.64843C59.5782 10.8266 59.6422 10.9066 61.5801 11.4512C62.3809 11.6754 63.8063 12.2519 64.7672 12.7324C65.7121 13.2129 66.6731 13.6133 66.8973 13.6133C67.1856 13.6133 67.6661 13.2609 68.5629 12.3961L69.8121 11.1629L70.8532 12.0758C71.9422 13.0207 73.6719 14.9105 73.6719 15.1348C73.6719 15.2148 73.1274 15.8234 72.4707 16.5121C71.75 17.2488 71.2696 17.8734 71.2696 18.0816C71.2696 18.2578 71.6219 19.0746 72.0543 19.8914C72.8071 21.3008 73.2555 22.4379 73.6719 23.9914C73.9762 25.1926 74.2164 25.3047 76.2184 25.3047H77.9481L78.0602 26.1375C78.1883 27.2266 78.1883 29.2125 78.0602 30.1574L77.9641 30.8781L76.2184 30.9422C74.0883 31.0062 74.0723 31.0223 73.3836 33.2324C73.1114 34.1133 72.5188 35.5387 72.0704 36.4035C71.6379 37.2523 71.2696 38.1172 71.2696 38.2934C71.2696 38.5016 71.75 39.1262 72.4868 39.8949C73.8641 41.3043 73.8641 41.048 72.5829 42.5215C72.1985 42.9539 71.4137 43.7387 70.8211 44.2512L69.7641 45.1641L68.5469 43.9949C67.8903 43.3383 67.2016 42.7617 67.0414 42.6977C66.8332 42.6176 66.1926 42.8738 65.0395 43.4664C64.1106 43.9469 62.6051 44.5555 61.7082 44.8437C60.6032 45.1801 59.9786 45.4684 59.8184 45.6926C59.6422 45.9488 59.5782 46.4773 59.5782 47.6625C59.5782 49.0078 59.5301 49.3121 59.3219 49.3922C59.0016 49.5203 54.5493 49.5203 54.2289 49.3922C54.0207 49.3121 53.9727 49.0078 53.9727 47.7426C53.9727 45.5645 53.9567 45.5324 51.6504 44.7637C50.5934 44.4113 49.0879 43.7707 48.3032 43.3543C47.3422 42.8578 46.7496 42.6336 46.5414 42.6977C46.3493 42.7457 45.6606 43.3383 44.9879 43.9949L43.7707 45.1961L42.5856 44.1551C41.4004 43.1301 39.8789 41.4645 39.8789 41.2082C39.8789 41.1281 40.3754 40.5676 41 39.959C41.6086 39.3504 42.1532 38.6777 42.2012 38.4375C42.2653 38.1332 42.0731 37.5887 41.4325 36.3555C40.952 35.4266 40.3914 34.1293 40.1993 33.4727C39.5907 31.4707 39.5426 31.3586 38.9821 31.1344C38.6618 31.0062 37.877 30.9102 37.0282 30.9102H35.6028L35.4907 30.4137C35.3625 29.773 35.3625 26.682 35.4907 25.8973L35.6028 25.3047H37.3004C38.4696 25.2887 39.0942 25.2246 39.2864 25.0805C39.4465 24.9523 39.7828 24.1516 40.0551 23.2867C40.3274 22.4059 40.936 20.9324 41.4164 20.0035C41.8969 19.0746 42.2813 18.1777 42.2813 18.0176C42.2813 17.8734 41.7368 17.1848 41.0801 16.5121C40.4235 15.8234 39.8789 15.1988 39.8789 15.1027C39.8789 14.8785 42.0891 12.5242 43.002 11.7875L43.7387 11.1789L44.9879 12.3961C45.9168 13.277 46.3653 13.6133 46.6696 13.6133C46.8938 13.6133 47.6786 13.293 48.4153 12.9086C49.136 12.5242 50.3051 12.0117 51.0098 11.7715C53.5082 10.9387 53.6043 10.8906 53.7965 10.4742C53.8926 10.25 53.9727 9.36914 53.9727 8.48828V6.90273L54.8215 6.83867C56.4391 6.72656 57.1438 6.72656 58.345 6.82265Z" fill="white"/>
<path id="Vector_2" d="M54.1328 15.6152C49.3922 16.6723 45.5965 20.3078 44.3473 24.9844C43.6746 27.5148 43.8828 30.4777 44.9078 33.0242C46.3652 36.6277 49.5523 39.4465 53.4441 40.5516C55.2379 41.0641 58.3289 41.0641 60.1227 40.5516C64.623 39.2703 68.1305 35.6668 69.1875 31.2305C69.5719 29.5969 69.6199 27.0184 69.2836 25.4488C68.3547 21.0606 65.0234 17.409 60.6672 15.9836C59.402 15.5672 58.8734 15.4871 57.1758 15.4391C55.8145 15.391 54.8375 15.4551 54.1328 15.6152ZM60.0266 18.466C63.0855 19.5391 65.2797 21.7172 66.4328 24.7922C66.9613 26.2336 67.1055 29.0523 66.7211 30.5898C66.0004 33.4566 63.9504 36.0191 61.3398 37.3004C59.5781 38.1652 57.9926 38.5016 56.1988 38.3895C51.7145 38.1172 48.0148 35.0902 46.8297 30.734C46.3812 29.1004 46.4453 26.666 46.9898 25.0645C48.159 21.6371 50.7535 19.1707 54.1648 18.2578C55.8465 17.7934 58.409 17.8895 60.0266 18.466Z" fill="white"/>
<path id="Vector_3" d="M60.6992 23.7352C60.475 23.8152 59.1937 25.1445 57.8164 26.7301L55.334 29.5969L54.1168 28.4117C53.1078 27.4508 52.7875 27.2266 52.3871 27.2266C51.6984 27.2266 51.0898 27.8512 51.0898 28.5238C51.0898 28.9563 51.3461 29.2926 52.7875 30.766C54.6293 32.6238 55.1098 32.9442 55.7664 32.6879C56.1508 32.5438 61.8684 26.1055 62.2688 25.3688C62.7812 24.4078 61.7723 23.3668 60.6992 23.7352Z" fill="white"/>
<path id="Vector_4" d="M4.69261 40.5195C3.42737 40.7918 2.37034 41.6086 1.7137 42.8258C1.36136 43.4824 1.36136 43.5145 1.31331 55.9746C1.28128 64.6231 1.31331 68.707 1.44144 69.2676C1.68167 70.3566 2.48245 71.4137 3.53948 71.9902C4.38831 72.4707 4.43636 72.4707 7.20706 72.5188C10.7305 72.5988 11.4352 72.5027 12.5082 71.8621C13.4692 71.2856 14.318 70.0844 14.4942 69.0113C14.5903 68.4668 14.6703 68.3867 15.1188 68.2906C15.9035 68.1465 18.418 68.643 19.9875 69.2516C21.8453 69.9723 24.0715 71.0934 28.0114 73.3195C31.5989 75.3375 34.3055 76.6828 35.811 77.1793C37.1563 77.6277 38.8539 77.884 39.7188 77.7559C41.3203 77.5316 76.3305 68.0504 77.2914 67.5859C79.1172 66.7051 80.4625 64.6871 80.6707 62.5891C80.911 59.8984 79.5016 57.5442 76.9071 56.327C74.9532 55.4141 74.745 55.4461 61.2118 58.3449C54.7575 59.7223 49.3602 60.8594 49.2321 60.8594C49.0559 60.8594 49.0239 60.7473 49.12 60.4109C49.2 60.1707 49.2481 59.418 49.2321 58.7453C49.216 57.6883 49.136 57.3359 48.7036 56.4871C48.4153 55.8945 47.8868 55.1578 47.4543 54.7574C46.9739 54.309 44.1551 52.5953 39.8789 50.1289C32.3516 45.8207 32.1114 45.6606 30.5098 44.3152C28.636 42.7457 26.5379 41.9609 24.1836 41.9609C22.1657 41.9609 18.4981 42.6817 15.7274 43.6266C14.6543 43.9949 14.5582 44.011 14.4782 43.7547C14.0137 42.3133 13.1969 41.3203 12.0278 40.7758C11.3711 40.4875 10.9547 40.4395 8.32816 40.4074C6.69456 40.3914 5.06097 40.4395 4.69261 40.5195ZM10.7785 43.0981C11.195 43.2102 11.4832 43.4344 11.6914 43.7707C11.9957 44.2672 12.0117 44.6836 12.0117 56.4231C12.0117 69.7801 12.0438 69.2356 11.0348 69.7481C10.6344 69.9723 10.0418 70.0043 7.67151 69.9563L4.80472 69.9082L4.3723 69.4598L3.92386 69.0274L3.87581 56.6473C3.84378 44.5875 3.84378 44.2672 4.16409 43.7707C4.35628 43.4504 4.67659 43.1942 4.9969 43.0981C5.71761 42.8899 10.0258 42.8899 10.7785 43.0981ZM26.7461 44.9879C27.2907 45.1961 28.2676 45.8207 29.2125 46.5895C30.3817 47.5184 32.6078 48.8957 37.6207 51.7945C46.3973 56.8555 45.9008 56.5192 46.3653 57.5442C46.5895 57.9926 46.7657 58.5852 46.7657 58.8414C46.7657 60.9074 44.7637 62.6051 42.8258 62.1727C42.4735 62.0926 39.5586 60.507 36.3395 58.6652C33.1364 56.8074 30.3336 55.2059 30.1414 55.1098C28.9723 54.4852 27.7711 56.1348 28.716 57.0637C29.1805 57.5442 40.9039 64.2707 41.7207 64.559C42.6657 64.8633 44.4274 64.7992 45.5645 64.4149C46.093 64.2387 49.152 63.534 52.3711 62.8613C55.5903 62.1887 61.3879 60.9555 65.2637 60.1387C69.1395 59.3219 72.759 58.5531 73.3196 58.441C75.7539 57.9766 77.7879 59.3059 78.0922 61.5481C78.3004 63.0535 77.3395 64.7832 75.9621 65.3918C75.2254 65.7281 40.2313 75.0973 39.3184 75.2094C37.7649 75.4176 34.5297 74.0883 29.2285 71.0453C25.3848 68.8352 22.0055 67.1856 20.0196 66.5609C18.2258 65.9684 15.8075 65.568 15.0387 65.7281L14.5743 65.8082V56.2309V46.6535L16.4641 46.077C18.9145 45.3242 20.1317 45.0039 21.7012 44.7477C23.4309 44.4594 25.625 44.5715 26.7461 44.9879Z" fill="white"/>
<path id="Vector_5" d="M6.9028 45.7727C5.3653 46.6055 5.47741 48.7355 7.09499 49.5363C8.76061 50.3691 10.6505 48.4953 9.83366 46.8137C9.24108 45.6285 8.00788 45.1801 6.9028 45.7727Z" fill="white"/>
</g>
</g>
</svg>
