<svg width="82" height="82" viewBox="0 0 82 82" fill="none" xmlns="http://www.w3.org/2000/svg">
<g id="stability 1" opacity="0.2">
<g id="Group">
<path id="Vector" d="M13.8375 8.07188C13.4531 8.24805 13.2609 8.5043 12.9406 9.30508L12.5242 10.3141L11.227 10.8586L9.91367 11.4031L8.95273 10.9707C8.28008 10.6824 7.84766 10.5703 7.55937 10.6504C7.31914 10.6984 6.4543 11.4352 5.57344 12.316C3.7957 14.1098 3.74766 14.2539 4.4043 15.7434L4.78867 16.6402L4.34023 17.6492C4.08398 18.2098 3.84375 18.7703 3.7957 18.9145C3.74766 19.0586 3.26719 19.3309 2.73867 19.5391C1.3293 20.0676 1.28125 20.1637 1.28125 22.8223C1.28125 25.4809 1.3293 25.577 2.73867 26.1055C3.26719 26.3137 3.74766 26.5859 3.7957 26.7301C3.84375 26.8742 4.08398 27.4348 4.34023 27.9953L4.78867 29.0043L4.4043 29.9012C3.74766 31.3906 3.7957 31.5348 5.57344 33.3285C6.4543 34.2094 7.31914 34.9461 7.55937 34.9941C7.84766 35.0742 8.28008 34.9621 8.95273 34.6738L9.91367 34.2414L11.227 34.7859L12.5242 35.3305L12.9406 36.3395C13.4691 37.6527 13.7895 37.7969 16.1758 37.7969C18.5621 37.7969 18.8824 37.6527 19.4109 36.3395L19.8273 35.3305L21.1246 34.7859L22.4379 34.2414L23.3988 34.6738C24.0715 34.9621 24.5039 35.0742 24.7922 34.9941C25.0324 34.9461 25.8973 34.2094 26.7941 33.3285C28.5559 31.5348 28.6039 31.3906 27.9473 29.9012L27.5629 29.0043L28.0113 27.9953C28.2676 27.4348 28.5078 26.8742 28.5559 26.7301C28.6039 26.5859 29.0844 26.3137 29.6129 26.1055C31.0223 25.577 31.0703 25.4809 31.0703 22.8223C31.0703 20.1637 31.0223 20.0676 29.6129 19.5391C29.0844 19.3309 28.6039 19.0586 28.5559 18.9145C28.5078 18.7703 28.2676 18.2098 28.0113 17.6492L27.5629 16.6402L27.9473 15.7434C28.6039 14.2539 28.5559 14.1098 26.7941 12.316C25.8973 11.4352 25.0324 10.6984 24.7922 10.6504C24.5039 10.5703 24.0715 10.6824 23.3988 10.9707L22.4379 11.4031L21.1246 10.8586L19.8273 10.3141L19.4109 9.30508C19.0906 8.47227 18.9145 8.24805 18.482 8.07188C17.7613 7.76758 14.5262 7.78359 13.8375 8.07188ZM17.457 11.275C17.8895 12.332 18.0977 12.5402 19.2188 12.8926C19.6992 13.0527 20.516 13.3891 21.0125 13.6293C22.1176 14.1898 22.4539 14.2059 23.4629 13.7574L24.2156 13.4211L24.9043 14.0938L25.593 14.7664L25.2086 15.6313C24.7281 16.7203 24.7281 16.8645 25.2086 17.6812C25.4168 18.0496 25.7852 18.8824 26.0094 19.5391C26.5379 20.9965 26.7301 21.2207 27.723 21.541L28.5078 21.8133V22.8223V23.8313L27.723 24.1035C26.7301 24.4238 26.5379 24.648 26.0094 26.1055C25.7852 26.7621 25.4168 27.5949 25.2086 27.9633C24.7281 28.7801 24.7281 28.9242 25.2086 30.0133L25.593 30.8781L24.9043 31.5508L24.2156 32.2234L23.4629 31.8871C22.4539 31.4387 22.1176 31.4547 21.0125 32.0152C20.516 32.2555 19.6992 32.5918 19.2188 32.752C18.0977 33.1043 17.8895 33.3125 17.457 34.3695L17.1047 35.2344H16.1758H15.2469L14.9586 34.4656C14.5742 33.4246 14.2379 33.0883 13.1648 32.768C12.6684 32.6078 11.8355 32.2715 11.3391 32.0152C10.25 31.4547 9.89766 31.4387 8.88867 31.8871L8.13594 32.2234L7.44727 31.5508L6.75859 30.8781L7.14297 30.0453C7.62344 29.0203 7.62344 28.7801 7.14297 27.9633C6.93477 27.5949 6.56641 26.7621 6.34219 26.1055C5.81367 24.648 5.6375 24.4398 4.62852 24.0875L3.84375 23.7992V22.8223V21.8453L4.62852 21.557C5.6375 21.2047 5.81367 20.9965 6.34219 19.5391C6.56641 18.8824 6.93477 18.0496 7.14297 17.6812C7.62344 16.8645 7.62344 16.6242 7.14297 15.5992L6.75859 14.7664L7.44727 14.0938L8.13594 13.4211L8.88867 13.7574C9.89766 14.2059 10.25 14.1898 11.3391 13.6293C11.8355 13.373 12.6684 13.0367 13.1648 12.8766C14.2379 12.5563 14.5742 12.2199 14.9586 11.1629L15.2469 10.4102H16.1758H17.1047L17.457 11.275Z" fill="white"/>
<path id="Vector_2" d="M14.8945 15.2309C12.7484 15.5992 10.4262 17.2648 9.41717 19.1547C7.35116 23.0305 8.92069 27.8512 12.8445 29.709C15.439 30.9262 18.0656 30.75 20.468 29.1805C24.3117 26.666 25.0004 21.2047 21.9094 17.6973C20.2597 15.8234 17.3769 14.8145 14.8945 15.2309ZM17.9695 18.0336C18.9465 18.3539 20.2437 19.5231 20.7883 20.5641C21.1566 21.2688 21.2207 21.5731 21.2207 22.8223C21.2207 24.0715 21.1566 24.3758 20.7883 25.0805C19.2027 28.1074 15.2949 28.8602 12.8125 26.634C12.364 26.2336 11.8035 25.5289 11.5633 25.0805C11.1949 24.3758 11.1308 24.0715 11.1308 22.8223C11.1308 21.5731 11.1949 21.2688 11.5633 20.5801C11.9637 19.7953 13.0687 18.6422 13.7414 18.2738C14.9586 17.6332 16.4801 17.5371 17.9695 18.0336Z" fill="white"/>
<path id="Vector_3" d="M63.4859 8.07188C63.1016 8.24805 62.9094 8.5043 62.5891 9.30508L62.1727 10.3141L60.8754 10.8586L59.5621 11.4031L58.6012 10.9707C57.9285 10.6824 57.4961 10.5703 57.2078 10.6504C56.9676 10.6984 56.1027 11.4352 55.2219 12.316C53.4441 14.1098 53.3961 14.2539 54.0527 15.7434L54.4371 16.6402L53.9887 17.6492C53.7324 18.2098 53.4922 18.7703 53.4441 18.9145C53.3961 19.0586 52.9156 19.3309 52.3871 19.5391C50.9777 20.0676 50.9297 20.1637 50.9297 22.8223C50.9297 25.4809 50.9777 25.577 52.3871 26.1055C52.9156 26.3137 53.3961 26.5859 53.4441 26.7301C53.4922 26.8742 53.7324 27.4348 53.9887 27.9953L54.4371 29.0043L54.0527 29.9012C53.3961 31.3906 53.4441 31.5348 55.2219 33.3285C56.1027 34.2094 56.9676 34.9461 57.2078 34.9941C57.4961 35.0742 57.9285 34.9621 58.6012 34.6738L59.5621 34.2414L60.8594 34.7699C61.8684 35.1863 62.2047 35.4105 62.3168 35.7148C63.0215 37.6527 63.2617 37.7969 65.8242 37.7969C68.2105 37.7969 68.5309 37.6527 69.0594 36.3395L69.4758 35.3305L70.773 34.7859L72.0863 34.2414L73.0473 34.6738C73.7199 34.9621 74.1523 35.0742 74.4406 34.9941C74.6809 34.9461 75.5457 34.2094 76.4426 33.3285C78.2043 31.5348 78.2523 31.3906 77.6117 29.9012L77.2113 29.0203L77.7559 27.7711C78.3004 26.5219 78.3164 26.5059 79.2293 26.1375C80.6867 25.5609 80.7188 25.4809 80.7188 22.8383C80.7188 20.1637 80.6707 20.0676 79.2613 19.5391C78.7328 19.3309 78.2523 19.0586 78.2043 18.9145C78.1562 18.7703 77.916 18.2098 77.6598 17.6492L77.2113 16.6402L77.5957 15.7434C78.2523 14.2539 78.2043 14.1098 76.4426 12.316C75.5457 11.4352 74.6809 10.6984 74.4406 10.6504C74.1523 10.5703 73.7199 10.6824 73.0473 10.9707L72.0863 11.4031L70.773 10.8586L69.4758 10.3141L69.0594 9.30508C68.7391 8.47227 68.5629 8.24805 68.1305 8.07188C67.4098 7.76758 64.1746 7.78359 63.4859 8.07188ZM67.0414 11.1629C67.4258 12.2199 67.7621 12.5563 68.8352 12.8766C69.3316 13.0367 70.1645 13.373 70.6609 13.6293C71.75 14.1898 72.1023 14.2059 73.1113 13.7574L73.8641 13.4211L74.5527 14.0938L75.2414 14.7664L74.857 15.5992C74.3766 16.6242 74.3766 16.8645 74.857 17.6812C75.0652 18.0496 75.4336 18.8824 75.6578 19.5391C76.1863 20.9965 76.3625 21.2047 77.3715 21.557L78.1562 21.8453V22.8383V23.8313L77.3715 24.1035C76.4105 24.4238 76.1543 24.6801 75.7539 25.8492C75.5938 26.3457 75.2254 27.1945 74.9531 27.723C74.3766 28.8762 74.3766 29.0043 74.857 30.0453L75.2414 30.8781L74.5527 31.5508L73.8641 32.2234L73.1113 31.8871C72.1023 31.4387 71.75 31.4547 70.6609 32.0152C70.1645 32.2715 69.3316 32.6078 68.8352 32.768C67.7621 33.0883 67.4258 33.4246 67.0414 34.4656L66.7531 35.2344H65.8242H64.8953L64.543 34.3695C64.1105 33.3125 63.9023 33.1043 62.7812 32.752C62.3008 32.5918 61.484 32.2555 60.9875 32.0152C59.8824 31.4547 59.5461 31.4387 58.5371 31.8871L57.7844 32.2234L57.0957 31.5508L56.407 30.8781L56.7914 30.0133C57.2719 28.9242 57.2719 28.7801 56.7914 27.9633C56.5832 27.5949 56.2148 26.7621 55.9906 26.1055C55.4621 24.648 55.2859 24.4398 54.277 24.0875L53.4922 23.7992V22.8223V21.8453L54.277 21.557C55.2859 21.2047 55.4621 20.9965 55.9906 19.5391C56.2148 18.8824 56.5832 18.0496 56.7914 17.6812C57.2719 16.8645 57.2719 16.7203 56.7914 15.6313L56.407 14.7664L57.0957 14.0938L57.7844 13.4211L58.5371 13.7574C59.5461 14.2059 59.8824 14.1898 60.9875 13.6293C61.484 13.3891 62.3008 13.0527 62.7812 12.8926C63.9023 12.5402 64.1105 12.332 64.543 11.275L64.8953 10.4102H65.8242H66.7531L67.0414 11.1629Z" fill="white"/>
<path id="Vector_4" d="M64.623 15.2148C60.1226 15.9996 57.2398 20.3879 58.3769 24.7441C59.7062 29.8531 65.6961 32.1273 70.1004 29.1965C74.6328 26.2016 74.6328 19.443 70.1004 16.4481C68.5468 15.407 66.3367 14.9266 64.623 15.2148ZM67.65 18.0336C68.7871 18.418 70.1644 19.8113 70.6129 21.0285C71.3336 22.9984 70.8851 24.9363 69.3636 26.4418C68.3066 27.4828 67.2336 27.9313 65.8242 27.9313C63.9504 27.9313 62.1086 26.7941 61.2117 25.0805C60.8433 24.3758 60.7793 24.0715 60.7793 22.8223C60.7793 21.5731 60.8433 21.2688 61.2117 20.5801C61.6121 19.7953 62.7172 18.6422 63.3898 18.2738C64.607 17.6172 66.1285 17.5371 67.65 18.0336Z" fill="white"/>
<path id="Vector_5" d="M1.68164 39.7988C1.28125 40.1832 1.28125 40.2152 1.28125 43.066C1.28125 45.9969 1.37734 46.6215 1.90586 46.8777C2.05 46.9418 10.0738 47.0379 19.7473 47.0859L37.3164 47.166L31.9512 55.318C28.0594 61.2277 26.5859 63.6141 26.5859 63.9344C26.5859 64.2066 26.7461 64.559 26.9863 64.7832L27.3707 65.1836H41H54.6293L55.0137 64.7832C55.2539 64.559 55.4141 64.2066 55.4141 63.9344C55.4141 63.6141 53.9406 61.2277 50.0488 55.318L44.6836 47.166L62.3168 47.0859L79.95 47.0059L80.3344 46.5574C80.7027 46.109 80.7188 46.0449 80.7188 43.1461C80.7188 40.2152 80.7188 40.1832 80.3184 39.7988L79.934 39.3984H41H2.06602L1.68164 39.7988ZM78.1562 43.2422V44.5234H41H3.84375V43.2422V41.9609H41H78.1562V43.2422ZM46.6375 54.8215L51.7305 62.541L46.3652 62.5891C43.4184 62.6051 38.5816 62.6051 35.6348 62.5891L30.2695 62.541L35.3625 54.8215L40.4395 47.0859H41H41.5605L46.6375 54.8215Z" fill="white"/>
<path id="Vector_6" d="M26.9383 67.634C26.602 67.9863 26.5859 68.1625 26.5859 70.6449C26.5859 73.2875 26.5859 73.3035 27.0023 73.6879L27.4187 74.0723H41H54.5812L54.9977 73.6879C55.4141 73.3035 55.4141 73.2875 55.4141 70.709C55.4141 68.3227 55.382 68.0824 55.0777 67.682L54.7574 67.2656H41.016H27.2746L26.9383 67.634ZM52.8516 70.709V71.5898H41H29.1484V70.709V69.8281H41H52.8516V70.709Z" fill="white"/>
</g>
</g>
</svg>
